<svg width="1034" height="1034" viewBox="0 0 1034 1034" fill="none" xmlns="http://www.w3.org/2000/svg">
<rect x="2.5" y="2.5" width="1029" height="1029" rx="182.5" fill="#fff"/>
<rect x="2.5" y="2.5" width="1029" height="1029" rx="182.5" stroke="black" stroke-width="0" stroke-linejoin="round"/>
<path d="M286.779 540.4L259.179 748H203.979L183.879 583.6L162.879 748H108.579L81.8793 540.4H122.379L139.479 715L162.279 540.4H206.679L228.579 715L247.779 540.4H286.779ZM412.789 540.4L408.289 571.3H348.889V627.1H400.789V657.7H348.889V716.8H412.189V748H306.289V540.4H412.789ZM478.674 540.4V748H436.074V540.4H478.674ZM586.688 535.6C598.488 535.6 608.988 537.8 618.188 542.2C627.588 546.4 636.288 552.5 644.288 560.5L623.588 581.8C617.588 576.6 611.888 572.9 606.488 570.7C601.088 568.3 595.088 567.1 588.488 567.1C575.488 567.1 565.488 572.9 558.488 584.5C551.488 595.9 547.988 615.8 547.988 644.2C547.988 664.2 549.188 679.8 551.588 691C554.188 702.2 557.888 710 562.688 714.4C567.488 718.8 573.888 721 581.888 721C589.888 721 597.588 718.6 604.988 713.8V660.7H583.088L578.888 630.1H644.888V731.8C636.088 738.4 626.188 743.5 615.188 747.1C604.388 750.7 593.488 752.5 582.488 752.5C556.088 752.5 536.388 743.8 523.388 726.4C510.588 708.8 504.188 681.3 504.188 643.9C504.188 619.9 507.788 599.8 514.988 583.6C522.188 567.4 531.988 555.4 544.388 547.6C556.788 539.6 570.888 535.6 586.688 535.6ZM763.993 748V656.5H715.393V748H672.793V540.4H715.393V623.2H763.993V540.4H806.593V748H763.993ZM955.92 540.4L951.42 573.1H910.02V748H867.72V573.1H824.22V540.4H955.92Z" fill="#333"/>
<path d="M286.369 280.4C311.969 280.4 331.369 286.1 344.569 297.5C357.969 308.7 364.669 325.2 364.669 347C364.669 370 358.169 387.3 345.169 398.9C332.169 410.5 313.869 416.3 290.269 416.3H278.869V488H236.269V280.4H286.369ZM287.269 385.4C299.269 385.4 307.869 382.5 313.069 376.7C318.469 370.9 321.169 361.1 321.169 347.3C321.169 334.7 318.569 325.5 313.369 319.7C308.169 313.9 299.669 311 287.869 311H278.869V385.4H287.269ZM516.511 428.9C516.511 440.9 514.011 451.7 509.011 461.3C504.011 470.9 496.411 478.5 486.211 484.1C476.211 489.7 463.911 492.5 449.311 492.5C427.311 492.5 410.511 486.7 398.911 475.1C387.311 463.3 381.511 447.9 381.511 428.9V280.4H424.111V427.1C424.111 438.5 426.111 446.9 430.111 452.3C434.111 457.7 440.511 460.4 449.311 460.4C457.911 460.4 464.211 457.7 468.211 452.3C472.211 446.7 474.211 438.3 474.211 427.1V280.4H516.511V428.9ZM639.244 488L603.844 405.8H601.144H588.244V488H545.644V280.4H597.844C648.444 280.4 673.744 301 673.744 342.2C673.744 354.6 671.044 365.7 665.644 375.5C660.444 385.1 652.344 392.5 641.344 397.7L684.544 488H639.244ZM599.344 376.1C610.344 376.1 618.244 373.4 623.044 368C627.844 362.6 630.244 354 630.244 342.2C630.244 331.4 627.644 323.5 622.444 318.5C617.444 313.3 609.144 310.7 597.544 310.7H588.244V376.1H599.344ZM806.246 280.4L801.746 311.3H742.346V367.1H794.246V397.7H742.346V456.8H805.646V488H699.746V280.4H806.246Z" stroke="#333" fill="#333"/>
</svg>
